<svg xmlns="http://www.w3.org/2000/svg" width="25" height="22.656" viewBox="0 0 25 22.656"><path d="M14.148.989c1.309.335 2.541.627 3.82-.013 1.116-.134 1.825.259 2.771.781l.409.215c.446.241.877.501 1.312.762l.581.3c.896.527 1.471.897 1.745 1.931.051.825.031 1.62-.019 2.444l-.028.887q-.04 1.11-.107 2.22-.033.595-.059 1.191a114 114 0 0 1-.111 2.024l-.036.602c-.091 1.09-.242 1.627-.989 2.462.113.384.227.766.351 1.147.068.716-.351 1.121-.786 1.653-.37.348-.648.545-1.127.716a14 14 0 0 1-.964-.085c-1.339-.041-2.107.649-3.091 1.459-.76.462-1.337.541-2.195.384-.527-.177-1.002-.417-1.489-.684l-.412-.217a109 109 0 0 1-1.224-.66l-.659-.348c-1.503-.822-2.94-1.749-4.37-2.691l-.579-.37c-1.498-1.005-1.498-1.005-1.744-1.858l-.07-.593-.781.781c.507.537.983.981 1.599 1.391.549.368.549.368.94.953.066.588.109.996 0 1.563-.499.591-.868.752-1.612.952-1.404.047-2.569-.228-3.662-1.148C.512 17.893.254 16.856.39 15.234c.445-1.429 1.351-2.263 2.539-3.125a30 30 0 0 1 .977-.391l-.141-.43-.628-1.938-.221-.676-.212-.656-.195-.602a13 13 0 0 1-.361-1.752l.77-.61.432-.344c1.468-1.091 2.962-1.939 4.621-2.709l1.188-.559.523-.244a17 17 0 0 0 .88-.445c1.13-.512 2.452-.077 3.584.234" fill="#94805C"/><path d="M14.148.989c1.309.335 2.541.627 3.82-.013 1.116-.134 1.825.259 2.771.781l.409.215c.446.241.877.501 1.312.762l.581.3c.896.527 1.471.897 1.745 1.931.051.825.031 1.62-.019 2.444l-.028.887q-.04 1.11-.107 2.22-.033.595-.059 1.191a114 114 0 0 1-.111 2.024l-.036.602c-.091 1.09-.242 1.627-.989 2.462.113.384.227.766.351 1.147.068.716-.351 1.121-.786 1.653-.37.348-.648.545-1.127.716a14 14 0 0 1-.964-.085c-1.339-.041-2.107.649-3.091 1.459-.76.462-1.337.541-2.195.384-.527-.177-1.002-.417-1.489-.684l-.412-.217a109 109 0 0 1-1.224-.66l-.659-.348c-1.503-.822-2.94-1.749-4.37-2.691l-.579-.37c-1.498-1.005-1.498-1.005-1.744-1.858l-.07-.593-.781.781c.507.537.983.981 1.599 1.391.549.368.549.368.94.953.066.588.109.996 0 1.563-.499.591-.868.752-1.612.952-1.404.047-2.569-.228-3.662-1.148C.512 17.893.254 16.856.39 15.234c.445-1.429 1.351-2.263 2.539-3.125a30 30 0 0 1 .977-.391l-.141-.43-.628-1.938-.221-.676-.212-.656-.195-.602a13 13 0 0 1-.361-1.752l.77-.61.432-.344c1.468-1.091 2.962-1.939 4.621-2.709l1.188-.559.523-.244a17 17 0 0 0 .88-.445c1.13-.512 2.452-.077 3.584.234M9.312 2.085l-.51.288a47 47 0 0 0-3.567 2.288l-.457.316-.418.305-.368.266c-.395.434-.438.699-.477 1.287a20 20 0 0 0 .331 1.572l.112.456q.118.477.239.953.181.721.355 1.444c.573 2.315 1.08 4.203 3.204 5.554a32 32 0 0 0 1.105.629l.409.227c3.707 2.336 3.707 2.336 7.722 3.228.624-.338.624-.338 1.233-.781l.632-.44.479-.341-.195-.781h-.977c.429-1.04.952-1.561 1.831-2.209l.334-.262c.633-.479 1.142-.771 1.937-.849v.977c.757.07.757.07 1.216-.275.522-.761.448-1.448.43-2.351l-.002-.548q-.006-.867-.02-1.734l-.005-1.153-.009-1.119-.004-.519c.063-2.107.063-2.107-.637-3.998a36 36 0 0 0-1.748-1.39l-.328-.241c-1.328-.998-1.328-.998-2.912-1.298-.64.165-1.07.35-1.619.709a24 24 0 0 1-1.807 1.062c-.902.498-1.757 1.063-2.612 1.636l-.426.279-.398.271-.36.241c-.357.345-.445.556-.476 1.052.195.337.195.337.517.627l.349.345.379.359.38.368c1.672 1.777 1.672 1.777 3.843 2.598a10 10 0 0 0 1.306-.684l.364-.216a38 38 0 0 0 2.575-1.716c.65-.462 1.325-.875 2.005-1.291-1.297 1.297-2.798 2.377-4.334 3.37l-.435.297c-.756.473-1.271.716-2.166.542-.902-.275-1.746-.664-2.587-1.084l-.967-.47-.506-.249c-.926-.452-1.857-.891-2.787-1.332l-1.038-.495-.443-.211a51 51 0 0 1-.754-.367l.408.128c1.213.359 2.235.52 3.498.458l.195-.586H9.96c-.046-.446-.046-.446 0-.977.88-1.007 2.178-1.613 3.347-2.223.961-.544 1.831-1.211 2.708-1.879-.68-.453-1.203-.551-2.002-.708l-.76-.155c-1.65-.25-2.523-.013-3.94.802" fill="#040403"/><path d="M4.688 12.5c.195.195.195.195.269.647-.073.525-.073.525-.549.952l-.502.354c-.235.47-.215.772-.208 1.294l.005.484.007.371.403.147c1.833.78 1.833.78 2.16 1.526-.023.475-.023.475-.246.792-.757.562-1.812.377-2.706.269-.695-.354-.695-.354-1.172-.781l-.342-.269c-.649-.845-.741-1.826-.634-2.856.409-1.313 1.263-2.122 2.344-2.93.489-.245.665-.163 1.172 0" fill="#E1E0DF"/><path d="m15.234 2.539.586.195c-.242.484-.413.528-.891.77-1.473.789-2.82 1.788-4.187 2.746.166.868.652 1.32 1.27 1.916l.32.313c1.602 1.693 1.602 1.693 3.684 2.459a10 10 0 0 0 1.306-.684l.364-.216a37 37 0 0 0 2.562-1.716c.706-.487 1.454-.893 2.213-1.291v.391a17 17 0 0 1-1.074.879l-.338.259c-1.358 1.016-2.805 1.887-4.252 2.769l-.586.391c-1.238-.065-2.377-.628-3.467-1.172l-.971-.472-.507-.249a332 332 0 0 0-2.709-1.306l-.509-.247a31 31 0 0 0-2.97-1.243c.769-.256 1.115-.065 1.88.183 1.126.34 2.03.484 3.198.403l.195-.391H9.96l-.194-.976c.945-.899 1.961-1.539 3.098-2.166a14.4 14.4 0 0 0 1.822-1.167z" fill="#080705"/><path d="M21.484 16.211c.533.256.966.54 1.367.977.183.745.183.745.195 1.367h-.39l-.049.366c-.146.415-.146.415-.487.671-.576.176-.849.147-1.416-.061-.525-.476-.525-.476-.977-.977l-.391-.391c.016-.758.109-1.08.635-1.636.609-.36.823-.466 1.514-.317" fill="#DAD9D8"/><path d="M4.688 12.5c.195.195.195.195.269.647-.073.525-.073.525-.549.952l-.502.354c-.223.447-.216.702-.208 1.196l.013.757-.659-.024c-.716-.056-.716-.056-1.098.415a17 17 0 0 0-.391.781c-.461-.72-.475-1.307-.391-2.148.408-1.313 1.263-2.123 2.344-2.93.489-.245.665-.163 1.172 0" fill="#E1E1E0"/><path d="M4.688 17.188c1.123.317 1.123.317 1.563.977-.07.578-.166.752-.586 1.172-.466.038-.466.038-1.001.024l-.539-.011-.413-.013c-.059-.878-.059-.878.214-1.328z" fill="#E6E6E5"/><path d="m22.266 7.031.195.391c-1.805 1.453-3.686 2.702-5.664 3.906l-.586.391-.586-.195c.634-.705 1.359-1.156 2.173-1.623a37 37 0 0 0 3.072-1.988c.452-.319.919-.603 1.396-.882" fill="#0F0D09"/><path d="M1.367 15.039c.668.083 1.313.18 1.953.391.317.513.317.513.391.977l-.659-.024c-.716-.056-.716-.056-1.098.415a17 17 0 0 0-.391.781c-.455-.71-.437-1.32-.391-2.148z" fill="#E3E2E1"/><path d="m15.234 2.539.586.195c-.242.484-.413.528-.891.77-1.473.789-2.82 1.788-4.187 2.746l-.195-.781.283-.164q.646-.375 1.291-.752l.445-.258a20 20 0 0 0 2.056-1.345z" fill="#0F0C09"/><path d="m3.906 16.602.781.391c-.112.652-.311.916-.781 1.367l-.195.586-.586-.196c-.11-.941.229-1.407.781-2.148" fill="#9B8A6C"/><path d="m2.856 16.187.464.024v.781l-.977.391v.391l-.586-.195c.213-1.35.213-1.35 1.098-1.391" fill="#9D8A69"/><path d="M1.563 14.453c1.274.12 1.274.12 1.746.501l.207.28-.195.586v-.391l-1.183.057-.38-.057-.391-.586z" fill="#9D8E71"/><path d="M20.898 16.211c.579.12.855.245 1.367.586-.251.501-.474.552-.977.781l-.44.22-.341.171c0-.763.295-.999.781-1.563z" fill="#E2E0DD"/><path d="m21.68 16.992.586.195q-.278.392-.562.781l-.316.44-.294.342h-.391c.094-.843.341-1.205.977-1.758" fill="#9B8967"/><path d="m22.266 7.031.195.391-2.148 1.563-.391-.391.952-.671.535-.377c.466-.319.466-.319.857-.515" fill="#18140E"/><path d="m15.234 2.539.586.195c-.258.515-.549.626-1.05.903l-.469.264c-.434.2-.434.2-1.02.2a8 8 0 0 1 1.953-1.563" fill="#18150F"/><path d="M20.508 16.602c.415.073.415.073.781.195-.705.916-.705.916-.977 1.172h-.586c.21-.57.348-.933.781-1.367" fill="#9D8B6B"/><path d="M2.93 12.891c.477.147.477.147.977.391.159.415.159.415.195.781-.464-.049-.464-.049-.977-.195-.256-.402-.256-.402-.391-.781z" fill="#9D8C6E"/><path d="m20.508 16.211.781.391-.44.171a16 16 0 0 0-1.318.61c.268-.617.388-.78.977-1.172" fill="#CAC7C1"/></svg>