<svg version="1.1" xmlns="http://www.w3.org/2000/svg" width="32" height="29" viewBox="0 0 32 29"><path d="M18.11 1.266C19.786 1.695 21.362 2.069 23 1.25c1.428 -0.171 2.336 0.331 3.547 1l0.524 0.275c0.571 0.308 1.123 0.641 1.679 0.976l0.744 0.384c1.147 0.674 1.883 1.148 2.233 2.472 0.065 1.056 0.04 2.073 -0.024 3.128q-0.019 0.568 -0.036 1.136c-0.032 0.949 -0.081 1.895 -0.137 2.842 -0.029 0.508 -0.052 1.016 -0.076 1.524a146 146 0 0 1 -0.142 2.591l-0.046 0.771c-0.117 1.395 -0.31 2.082 -1.266 3.151 0.145 0.491 0.29 0.981 0.449 1.468 0.087 0.916 -0.449 1.435 -1.006 2.116 -0.474 0.445 -0.83 0.698 -1.443 0.916a17.75 17.75 0 0 1 -1.234 -0.109c-1.714 -0.053 -2.697 0.831 -3.956 1.867C21.837 28.349 21.098 28.451 20 28.25c-0.675 -0.226 -1.282 -0.534 -1.906 -0.875l-0.527 -0.278A140 140 0 0 1 16 26.25l-0.844 -0.446c-1.924 -1.052 -3.763 -2.239 -5.594 -3.445l-0.741 -0.473c-1.917 -1.286 -1.917 -1.286 -2.232 -2.377L6.5 18.75l-1 1c0.649 0.687 1.258 1.256 2.047 1.781C8.25 22 8.25 22 8.75 22.75c0.084 0.753 0.14 1.275 0 2 -0.639 0.756 -1.111 0.963 -2.063 1.219 -1.797 0.06 -3.288 -0.292 -4.688 -1.469 -1.344 -1.596 -1.674 -2.924 -1.5 -5 0.57 -1.829 1.729 -2.897 3.25 -4a38.25 38.25 0 0 1 1.25 -0.5l-0.18 -0.55a1287 1287 0 0 1 -0.804 -2.481l-0.283 -0.865 -0.271 -0.84 -0.25 -0.77C2.999 8.748 2.862 8.017 2.75 7.25a220.25 220.25 0 0 1 0.985 -0.781l0.553 -0.44c1.879 -1.397 3.791 -2.482 5.915 -3.467l1.521 -0.715 0.67 -0.312a22 22 0 0 0 1.127 -0.569c1.447 -0.655 3.138 -0.099 4.588 0.299" fill="#94805C"/><path d="M18.11 1.266C19.786 1.695 21.362 2.069 23 1.25c1.428 -0.171 2.336 0.331 3.547 1l0.524 0.275c0.571 0.308 1.123 0.641 1.679 0.976l0.744 0.384c1.147 0.674 1.883 1.148 2.233 2.472 0.065 1.056 0.04 2.073 -0.024 3.128q-0.019 0.568 -0.036 1.136c-0.032 0.949 -0.081 1.895 -0.137 2.842 -0.029 0.508 -0.052 1.016 -0.076 1.524a146 146 0 0 1 -0.142 2.591l-0.046 0.771c-0.117 1.395 -0.31 2.082 -1.266 3.151 0.145 0.491 0.29 0.981 0.449 1.468 0.087 0.916 -0.449 1.435 -1.006 2.116 -0.474 0.445 -0.83 0.698 -1.443 0.916a17.75 17.75 0 0 1 -1.234 -0.109c-1.714 -0.053 -2.697 0.831 -3.956 1.867C21.837 28.349 21.098 28.451 20 28.25c-0.675 -0.226 -1.282 -0.534 -1.906 -0.875l-0.527 -0.278A140 140 0 0 1 16 26.25l-0.844 -0.446c-1.924 -1.052 -3.763 -2.239 -5.594 -3.445l-0.741 -0.473c-1.917 -1.286 -1.917 -1.286 -2.232 -2.377L6.5 18.75l-1 1c0.649 0.687 1.258 1.256 2.047 1.781C8.25 22 8.25 22 8.75 22.75c0.084 0.753 0.14 1.275 0 2 -0.639 0.756 -1.111 0.963 -2.063 1.219 -1.797 0.06 -3.288 -0.292 -4.688 -1.469 -1.344 -1.596 -1.674 -2.924 -1.5 -5 0.57 -1.829 1.729 -2.897 3.25 -4a38.25 38.25 0 0 1 1.25 -0.5l-0.18 -0.55a1287 1287 0 0 1 -0.804 -2.481l-0.283 -0.865 -0.271 -0.84 -0.25 -0.77C2.999 8.748 2.862 8.017 2.75 7.25a220.25 220.25 0 0 1 0.985 -0.781l0.553 -0.44c1.879 -1.397 3.791 -2.482 5.915 -3.467l1.521 -0.715 0.67 -0.312a22 22 0 0 0 1.127 -0.569c1.447 -0.655 3.138 -0.099 4.588 0.299m-6.188 1.406 -0.653 0.369c-1.57 0.906 -3.084 1.884 -4.566 2.928l-0.585 0.405 -0.535 0.39 -0.471 0.34C4.605 7.659 4.55 7.998 4.5 8.75c0.117 0.688 0.253 1.338 0.424 2.012l0.143 0.584q0.151 0.611 0.306 1.22c0.156 0.615 0.305 1.231 0.454 1.848 0.733 2.963 1.382 5.38 4.101 7.109a41 41 0 0 0 1.414 0.805l0.524 0.29C16.611 25.608 16.611 25.608 21.75 26.75c0.799 -0.432 0.799 -0.432 1.578 -1l0.809 -0.563L24.75 24.75l-0.25 -1h-1.25c0.549 -1.331 1.219 -1.998 2.344 -2.828l0.427 -0.335c0.81 -0.613 1.462 -0.987 2.479 -1.087v1.25c0.969 0.089 0.969 0.089 1.556 -0.352 0.668 -0.974 0.574 -1.854 0.551 -3.009l-0.003 -0.701c-0.004 -0.74 -0.015 -1.479 -0.026 -2.219q-0.004 -0.738 -0.007 -1.476 -0.005 -0.716 -0.011 -1.432l-0.005 -0.664c0.081 -2.697 0.081 -2.697 -0.816 -5.117 -0.735 -0.61 -1.467 -1.216 -2.238 -1.779l-0.42 -0.308c-1.7 -1.278 -1.7 -1.278 -3.727 -1.662 -0.819 0.211 -1.369 0.448 -2.072 0.907 -0.76 0.484 -1.514 0.943 -2.313 1.359 -1.154 0.637 -2.249 1.36 -3.344 2.094 -0.18 0.117 -0.36 0.235 -0.545 0.357l-0.51 0.347 -0.461 0.309C13.652 7.845 13.54 8.116 13.5 8.75c0.25 0.431 0.25 0.431 0.662 0.802l0.447 0.442 0.485 0.459 0.487 0.471C17.721 13.198 17.721 13.198 20.5 14.25a13 13 0 0 0 1.672 -0.875l0.466 -0.277c1.133 -0.683 2.223 -1.421 3.296 -2.196 0.832 -0.591 1.696 -1.12 2.567 -1.652 -1.66 1.66 -3.581 3.042 -5.547 4.313l-0.557 0.38c-0.968 0.606 -1.627 0.917 -2.772 0.694C18.47 14.285 17.39 13.787 16.313 13.25l-1.238 -0.602 -0.648 -0.319c-1.185 -0.578 -2.377 -1.14 -3.567 -1.705l-1.329 -0.633 -0.567 -0.27A65 65 0 0 1 8 9.25l0.522 0.164C10.075 9.874 11.383 10.079 13 10l0.25 -0.75h-0.5c-0.059 -0.571 -0.059 -0.571 0 -1.25 1.127 -1.289 2.788 -2.064 4.284 -2.845C18.264 4.459 19.378 3.605 20.5 2.75c-0.87 -0.58 -1.54 -0.705 -2.563 -0.906 -0.321 -0.065 -0.642 -0.13 -0.973 -0.198 -2.112 -0.32 -3.23 -0.017 -5.043 1.026" fill="#040403"/><path d="M6 16c0.25 0.25 0.25 0.25 0.344 0.828C6.25 17.5 6.25 17.5 5.641 18.047L5 18.5c-0.301 0.601 -0.275 0.988 -0.266 1.656l0.007 0.619L4.75 21.25l0.516 0.188c2.346 0.999 2.346 0.999 2.765 1.953C8 24 8 24 7.714 24.406 6.745 25.125 5.395 24.889 4.25 24.75c-0.89 -0.453 -0.89 -0.453 -1.5 -1l-0.438 -0.344C1.481 22.325 1.363 21.069 1.5 19.75c0.524 -1.68 1.616 -2.716 3 -3.75 0.626 -0.313 0.851 -0.209 1.5 0" fill="#E1E0DF"/><path d="m19.5 3.25 0.75 0.25c-0.31 0.62 -0.528 0.676 -1.141 0.985C17.224 5.495 15.499 6.774 13.75 8c0.212 1.111 0.835 1.689 1.625 2.453l0.409 0.4c2.05 2.167 2.05 2.167 4.716 3.147a13 13 0 0 0 1.672 -0.875l0.466 -0.277c1.13 -0.68 2.21 -1.423 3.279 -2.196 0.904 -0.624 1.861 -1.143 2.833 -1.652v0.5a21.75 21.75 0 0 1 -1.375 1.125l-0.433 0.331C25.204 12.257 23.352 13.372 21.5 14.5l-0.75 0.5c-1.584 -0.083 -3.042 -0.804 -4.438 -1.5l-1.243 -0.604 -0.649 -0.319c-1.152 -0.564 -2.309 -1.118 -3.467 -1.672l-0.651 -0.316A39.25 39.25 0 0 0 6.5 9c0.984 -0.328 1.427 -0.083 2.406 0.234C10.347 9.669 11.504 9.853 13 9.75l0.25 -0.5h-0.5l-0.25 -1.25c1.209 -1.151 2.51 -1.97 3.965 -2.772 0.819 -0.454 1.589 -0.923 2.332 -1.494z" fill="#080705"/><path d="M27.5 20.75c0.682 0.328 1.236 0.691 1.75 1.25 0.234 0.953 0.234 0.953 0.25 1.75h-0.5l-0.063 0.469C28.75 24.75 28.75 24.75 28.313 25.078c-0.737 0.225 -1.087 0.188 -1.813 -0.078 -0.672 -0.609 -0.672 -0.609 -1.25 -1.25l-0.5 -0.5c0.021 -0.97 0.139 -1.383 0.813 -2.094 0.78 -0.461 1.054 -0.596 1.938 -0.406" fill="#DAD9D8"/><path d="M6 16c0.25 0.25 0.25 0.25 0.344 0.828C6.25 17.5 6.25 17.5 5.641 18.047L5 18.5c-0.286 0.572 -0.276 0.898 -0.266 1.531L4.75 21l-0.844 -0.031C2.989 20.897 2.989 20.897 2.5 21.5a22.25 22.25 0 0 0 -0.5 1c-0.59 -0.921 -0.608 -1.673 -0.5 -2.75 0.522 -1.68 1.617 -2.717 3 -3.75 0.626 -0.313 0.851 -0.209 1.5 0" fill="#E1E1E0"/><path d="M6 22c1.438 0.406 1.438 0.406 2 1.25 -0.09 0.74 -0.212 0.962 -0.75 1.5 -0.596 0.049 -0.596 0.049 -1.281 0.031l-0.69 -0.014L4.75 24.75c-0.076 -1.124 -0.076 -1.124 0.274 -1.7z" fill="#E6E6E5"/><path d="m28.5 9 0.25 0.5c-2.311 1.86 -4.718 3.458 -7.25 5l-0.75 0.5 -0.75 -0.25c0.811 -0.903 1.739 -1.48 2.781 -2.078 1.355 -0.793 2.66 -1.621 3.932 -2.545C27.292 9.72 27.89 9.357 28.5 9" fill="#0F0D09"/><path d="M1.75 19.25c0.855 0.106 1.681 0.23 2.5 0.5 0.406 0.656 0.406 0.656 0.5 1.25l-0.844 -0.031C2.989 20.897 2.989 20.897 2.5 21.5a22.25 22.25 0 0 0 -0.5 1c-0.582 -0.909 -0.559 -1.69 -0.5 -2.75z" fill="#E3E2E1"/><path d="m19.5 3.25 0.75 0.25c-0.31 0.62 -0.528 0.676 -1.141 0.985C17.224 5.495 15.499 6.774 13.75 8l-0.25 -1 0.362 -0.21q0.827 -0.48 1.653 -0.962l0.57 -0.33c0.915 -0.535 1.788 -1.08 2.632 -1.722z" fill="#0F0C09"/><path d="m5 21.25 1 0.5c-0.144 0.835 -0.398 1.173 -1 1.75l-0.25 0.75 -0.75 -0.25c-0.141 -1.204 0.293 -1.801 1 -2.75" fill="#9B8A6C"/><path d="M3.656 20.719 4.25 20.75v1l-1.25 0.5v0.5l-0.75 -0.25c0.273 -1.728 0.273 -1.728 1.406 -1.781" fill="#9D8A69"/><path d="M2 18.5c1.631 0.154 1.631 0.154 2.235 0.641L4.5 19.5l-0.25 0.75v-0.5l-1.514 0.073L2.25 19.75l-0.5 -0.75z" fill="#9D8E71"/><path d="M26.75 20.75c0.741 0.153 1.095 0.314 1.75 0.75 -0.321 0.641 -0.607 0.706 -1.25 1l-0.563 0.281L26.25 23c0 -0.977 0.377 -1.279 1 -2z" fill="#E2E0DD"/><path d="m27.75 21.75 0.75 0.25q-0.356 0.502 -0.719 1l-0.404 0.563L27 24h-0.5c0.12 -1.079 0.436 -1.542 1.25 -2.25" fill="#9B8967"/><path d="m28.5 9 0.25 0.5 -2.75 2 -0.5 -0.5q0.609 -0.43 1.219 -0.859l0.685 -0.483C28 9.25 28 9.25 28.5 9" fill="#18140E"/><path d="m19.5 3.25 0.75 0.25c-0.33 0.659 -0.703 0.801 -1.344 1.156l-0.6 0.338C17.75 5.25 17.75 5.25 17 5.25c0.756 -0.814 1.535 -1.446 2.5 -2" fill="#18150F"/><path d="M26.25 21.25c0.531 0.094 0.531 0.094 1 0.25 -0.903 1.172 -0.903 1.172 -1.25 1.5h-0.75c0.269 -0.729 0.445 -1.194 1 -1.75" fill="#9D8B6B"/><path d="M3.75 16.5c0.61 0.188 0.61 0.188 1.25 0.5 0.203 0.531 0.203 0.531 0.25 1 -0.594 -0.063 -0.594 -0.063 -1.25 -0.25 -0.328 -0.515 -0.328 -0.515 -0.5 -1z" fill="#9D8C6E"/><path d="m26.25 20.75 1 0.5 -0.563 0.219A20.5 20.5 0 0 0 25 22.25c0.343 -0.79 0.497 -0.998 1.25 -1.5" fill="#CAC7C1"/></svg>